<svg xmlns="http://www.w3.org/2000/svg" width="256" height="256" fill="none" style="-webkit-print-color-adjust:exact">
    <g>
      <path d="M71.494 205.113C13.098 205.113 9 175.882 9 131.196c0-27.925 87.741-41.887 62.494-41.887-62.494 0-42.769-51.272-42.465-51.742 21.671-33.493 42.465-42.134 75.945 0C129.304 68.186 122.085 8 156.308 8c25.296 0 14.124 7.873 37.943 29.567 35.699 32.513 38.22 9.273 51.335 51.742 9.204 29.806-30.008 38.519-17.855 56.67 13.142 19.629 22.673 14.546-33.48 59.134C165.59 227.872 176.904 247 156.308 247c-27.619 0-30.15-54.206-51.334-54.206-19.238 0-19.626 12.319-33.48 12.319Z" style="fill:#7dc95e;fill-opacity:1"/>
      <path d="M71.494 205.113C13.098 205.113 9 175.882 9 131.196c0-27.925 87.741-41.887 62.494-41.887-62.494 0-42.769-51.272-42.465-51.742 21.671-33.493 42.465-42.134 75.945 0C129.304 68.186 122.085 8 156.308 8c25.296 0 14.124 7.873 37.943 29.567 35.699 32.513 38.22 9.273 51.335 51.742 9.204 29.806-30.008 38.519-17.855 56.67 13.142 19.629 22.673 14.546-33.48 59.134C165.59 227.872 176.904 247 156.308 247c-27.619 0-30.15-54.206-51.334-54.206-19.238 0-19.626 12.319-33.48 12.319Z" class="stroke-shape" style="fill:none;stroke-width:1;stroke:#000;stroke-opacity:1"/>
    </g>
</svg>
