<svg xmlns="http://www.w3.org/2000/svg" width="256" height="256" fill="none" style="-webkit-print-color-adjust:exact">
    <g>
      <path d="M52 143.714C52 37.45 125.542-4.02 143.294 14.123c17.751 18.143 81.149 129.591 30.431 129.591-19.416 0-34.372 5.318-46.86 11.882C106.73 166.178 93.011 180 77.359 180 52 180 52 143.714 52 143.714Z" style="fill:#f0ced1;fill-opacity:1"/>
      <path d="M52 143.714C52 37.45 125.542-4.02 143.294 14.123c17.751 18.143 81.149 129.591 30.431 129.591-19.416 0-34.372 5.318-46.86 11.882C106.73 166.178 93.011 180 77.359 180 52 180 52 143.714 52 143.714Z" class="stroke-shape" style="fill:none;stroke-width:1;stroke:#000;stroke-opacity:1"/>
      <path d="M133 154c0 97.062 71 91.954 71 91.954"/>
      <path d="M133 154c0 97.062 71 91.954 71 91.954" class="stroke-shape" style="fill:none;stroke-width:1;stroke:#000;stroke-opacity:1"/>
    </g>
</svg>
