<svg xmlns="http://www.w3.org/2000/svg" width="256" height="256" fill="none" style="-webkit-print-color-adjust:exact">
    <g>
      <path d="M100.331 105.574C142.143 65.721 139.455 21 139.455 21s-2.087 43.331 39.123 84.574C210.398 137.419 249 130.632 249 130.632s-57.967 3.112-70.422 42.287C169.124 202.656 227.519 234 227.519 234s-36.943-36.477-88.064-36.477c-26.083 0-39.124 36.477-39.124 36.477s7.745-35.332-19.361-61.081C46.522 140.197 8 146.294 8 146.294s46.507 2.956 92.331-40.72Z" style="fill:#7dc95e;fill-opacity:1"/>
      <path d="M100.331 105.574C142.143 65.721 139.455 21 139.455 21s-2.087 43.331 39.123 84.574C210.398 137.419 249 130.632 249 130.632s-57.967 3.112-70.422 42.287C169.124 202.656 227.519 234 227.519 234s-36.943-36.477-88.064-36.477c-26.083 0-39.124 36.477-39.124 36.477s7.745-35.332-19.361-61.081C46.522 140.197 8 146.294 8 146.294s46.507 2.956 92.331-40.72Z" class="stroke-shape" style="fill:none;stroke-width:1;stroke:#000;stroke-opacity:1"/>
    </g>
</svg>
